<svg width="250" height="38" viewBox="0 0 250 38" fill="none" xmlns="http://www.w3.org/2000/svg">
<path d="M1 18L1 20M5 17L5 21M9 15L9 23M13 11L13 27M17 7L17 31M21 1L21 37M25 9V29M29 10V28M33 13V25M37 16V22M41 18V20M45 18V20M49 18V20M53 18V20M57 15V23M61 11V27M65 13V25M69 8V30M73 1V37M77 5V33M81 9V29M85 13V25M89 16V22M93 18V20M97 18V20M101 18V20M105 18V20M109 17V21M113 15V23M117 11V27M121 7V31M125 1V37M129 9V29M133 9V29M137 6V32M141 3V35M145 11V27M149 15V23M153 15V23M157 15V23M161 14V24M165 10V28M169 1V37M173 4V34M177 1V37M181 4V34M185 1V37M189 7V31M193 13V25M197 18V20M201 18V20M205 14V24M209 9V29M213 14V24M217 4V34M221 1V37M225 4V34M229 1V37M233 11V27M237 11V27M241 14V24M245 16V22M249 18V20" stroke="url(#paint0_linear_2_670)" stroke-width="1.5" stroke-linecap="round"/>
<defs>
<linearGradient id="paint0_linear_2_670" x1="16" y1="37" x2="243.5" y2="37" gradientUnits="userSpaceOnUse">
<stop stop-color="#00E9FF"/>
<stop offset="1" stop-color="#FF00D8"/>
</linearGradient>
</defs>
</svg>
