<?xml version="1.0" encoding="UTF-8" standalone="no"?>
<svg
   xmlns:dc="http://purl.org/dc/elements/1.1/"
   xmlns:cc="http://creativecommons.org/ns#"
   xmlns:rdf="http://www.w3.org/1999/02/22-rdf-syntax-ns#"
   xmlns:svg="http://www.w3.org/2000/svg"
   xmlns="http://www.w3.org/2000/svg"
   xmlns:sodipodi="http://sodipodi.sourceforge.net/DTD/sodipodi-0.dtd"
   xmlns:inkscape="http://www.inkscape.org/namespaces/inkscape"
   width="24"
   height="24"
   viewBox="0 0 24 24"
   fill="none"
   version="1.1"
   id="svg4"
   sodipodi:docname="compass.svg"
   inkscape:version="0.92.4 (5da689c313, 2019-01-14)">
  <metadata
     id="metadata10">
    <rdf:RDF>
      <cc:Work
         rdf:about="">
        <dc:format>image/svg+xml</dc:format>
        <dc:type
           rdf:resource="http://purl.org/dc/dcmitype/StillImage" />
      </cc:Work>
    </rdf:RDF>
  </metadata>
  <defs
     id="defs8" />
  <sodipodi:namedview
     pagecolor="#ffffff"
     bordercolor="#666666"
     borderopacity="1"
     objecttolerance="10"
     gridtolerance="10"
     guidetolerance="10"
     inkscape:pageopacity="0"
     inkscape:pageshadow="2"
     inkscape:window-width="1920"
     inkscape:window-height="1017"
     id="namedview6"
     showgrid="false"
     inkscape:zoom="9.8333333"
     inkscape:cx="12"
     inkscape:cy="12"
     inkscape:window-x="1912"
     inkscape:window-y="-8"
     inkscape:window-maximized="1"
     inkscape:current-layer="svg4" />
  <path
     d="M13.5 12C13.5 12.8297 12.8297 13.5 12 13.5C11.1703 13.5 10.5 12.8297 10.5 12C10.5 11.1703 11.1703 10.5 12 10.5C12.8297 10.5 13.5 11.1703 13.5 12ZM0 12C0 5.37188 5.37188 0 12 0C18.6281 0 24 5.37188 24 12C24 18.6281 18.6281 24 12 24C5.37188 24 0 18.6281 0 12ZM15.2391 14.3766L17.8406 7.6125C18.1922 6.66094 17.2969 5.80781 16.3875 6.15937L9.62344 8.76094C9.225 8.91094 8.91094 9.225 8.76094 9.62344L6.15937 16.3875C5.80781 17.2969 6.66094 18.1922 7.6125 17.8406L14.3766 15.2391C14.775 15.0891 15.0891 14.775 15.2391 14.3766Z"
     fill="white"
     style="mix-blend-mode:overlay;fill:#e4bbf7;fill-opacity:0.74901962"
     id="path2" />
</svg>
