<svg width="28" height="28" viewBox="0 0 28 28" fill="none" xmlns="http://www.w3.org/2000/svg">
<path d="M23.6975 4.09125C21.0269 1.49125 17.4925 0 14 0C10.5075 0 6.97312 1.49125 4.3025 4.09125C1.52812 6.79187 0 10.3125 0 14C0 15.6669 0.546875 17.8181 2.055 21.8469C3.56312 25.8756 6.5625 27.5625 7.82938 27.8381C8.1925 27.9175 8.61812 28 9 28C9.65802 28.0006 10.3046 27.8281 10.875 27.5L11.75 27C12.6919 26.4487 12.9669 25.2419 12.425 24.2906L6.9925 14.755C6.86305 14.5268 6.68962 14.3266 6.48224 14.1659C6.27486 14.0052 6.03767 13.8873 5.7844 13.819C5.53112 13.7506 5.2668 13.7332 5.00674 13.7677C4.74668 13.8022 4.49605 13.8879 4.26937 14.02L3.41375 14.52C3.0849 14.7126 2.78941 14.9573 2.53875 15.2444C2.50764 15.2809 2.46668 15.3077 2.42077 15.3215C2.37485 15.3354 2.32591 15.3358 2.27979 15.3226C2.23367 15.3094 2.19232 15.2833 2.16066 15.2472C2.129 15.2112 2.10838 15.1668 2.10125 15.1194C2.03825 14.7495 2.0044 14.3752 2 14C2 10.8556 3.3125 7.845 5.6975 5.52437C8 3.28437 11.0244 2 14 2C16.9756 2 20 3.28437 22.3025 5.52437C24.6875 7.845 26 10.8556 26 14C25.9944 14.3753 25.9593 14.7496 25.895 15.1194C25.8879 15.1668 25.8672 15.2112 25.8356 15.2472C25.8039 15.2833 25.7626 15.3094 25.7165 15.3226C25.6703 15.3358 25.6214 15.3354 25.5755 15.3215C25.5296 15.3077 25.4886 15.2809 25.4575 15.2444C25.2068 14.9573 24.9114 14.7126 24.5825 14.52L23.7269 14.02C23.5002 13.8879 23.2496 13.8022 22.9895 13.7677C22.7295 13.7332 22.4651 13.7506 22.2119 13.819C21.9586 13.8873 21.7214 14.0052 21.514 14.1659C21.3066 14.3266 21.1332 14.5268 21.0037 14.755L15.575 24.2906C15.0331 25.2419 15.3081 26.4487 16.25 27L17.125 27.5C17.6954 27.8281 18.342 28.0006 19 28C19.3819 28 19.8075 27.9175 20.1706 27.8381C21.4375 27.5625 24.4375 25.875 25.945 21.8469C27.4525 17.8187 28 15.6669 28 14C28 10.3125 26.4719 6.79187 23.6975 4.09125Z" fill="white"/>
</svg>
