<svg width="16" height="16" viewBox="0 0 16 16" fill="none" xmlns="http://www.w3.org/2000/svg">
<path d="M8 1.5C4.41594 1.5 1.5 4.41594 1.5 8C1.5 11.5841 4.41594 14.5 8 14.5C11.5841 14.5 14.5 11.5841 14.5 8C14.5 4.41594 11.5841 1.5 8 1.5ZM8.0625 4.5C8.50751 4.5 8.94252 4.63196 9.31253 4.87919C9.68254 5.12643 9.97093 5.47783 10.1412 5.88896C10.3115 6.3001 10.3561 6.7525 10.2693 7.18895C10.1825 7.62541 9.96816 8.02632 9.65349 8.34099C9.33882 8.65566 8.93791 8.86995 8.50145 8.95677C8.065 9.04358 7.6126 8.99903 7.20146 8.82873C6.79033 8.65843 6.43893 8.37004 6.19169 8.00003C5.94446 7.63002 5.8125 7.19501 5.8125 6.75C5.8125 6.15326 6.04955 5.58097 6.47151 5.15901C6.89347 4.73705 7.46576 4.5 8.0625 4.5V4.5ZM8 13.5C7.24139 13.5003 6.49097 13.3433 5.79613 13.0388C5.10129 12.7344 4.47715 12.2892 3.96312 11.7312C4.23937 10.3006 6.72063 10 8 10C9.27937 10 11.7606 10.3006 12.0369 11.7309C11.5229 12.289 10.8988 12.7343 10.2039 13.0388C9.5091 13.3433 8.75864 13.5003 8 13.5V13.5Z" fill="white" fill-opacity="0.5"/>
</svg>
