<svg width="24" height="32" viewBox="0 0 24 32" fill="none" xmlns="http://www.w3.org/2000/svg">
<path d="M12 22C15.3144 22 18 19.3144 18 16V6C18 2.68563 15.3144 0 12 0C8.68563 0 6 2.68563 6 6V16C6 19.3125 8.63125 22 12 22ZM21.5 12C20.6688 12 20 12.6688 20 13.4438V16C20 20.5831 16.1269 24.275 11.4812 23.9813C7.35125 23.7207 4 19.8194 4 15.6812V13.4438C4 12.6688 3.32812 12 2.5 12C1.67188 12 1 12.6688 1 13.4438V15.4531C1 21.0569 4.99813 26.0531 10.5 26.8094V29H8C6.86312 29 5.9475 29.9487 6.0025 31.0981C6.02688 31.6125 6.4875 32 7 32H17C17.5139 32 17.9731 31.6115 17.9975 31.0981C18.05 29.95 17.1375 29 16 29H13.5V26.8894C18.8563 26.1562 23 21.5562 23 16V13.4438C23 12.6688 22.3312 12 21.5 12Z" fill="white"/>
</svg>
