<svg width="16" height="16" viewBox="0 0 16 16" fill="none" xmlns="http://www.w3.org/2000/svg">
<path fill-rule="evenodd" clip-rule="evenodd" d="M1.5 8C1.5 4.41594 4.41594 1.5 8 1.5C11.5841 1.5 14.5 4.41594 14.5 8C14.5 11.5841 11.5841 14.5 8 14.5C6.99319 14.5 6.03911 14.2699 5.18757 13.8595C5.47377 13.6467 5.72374 13.3879 5.92658 13.094C6.58446 13.3622 7.28864 13.5003 8 13.5C8.75864 13.5003 9.5091 13.3433 10.2039 13.0388C10.8988 12.7343 11.5229 12.289 12.0369 11.7309C11.7606 10.3006 9.27938 10 8 10C7.5397 10 6.92383 10.0389 6.31105 10.1554C5.86172 8.89898 4.66084 8 3.25 8C2.61372 8 2.02014 8.18285 1.51895 8.49887C1.50639 8.3342 1.5 8.16783 1.5 8ZM9.31253 4.87919C8.94252 4.63196 8.50751 4.5 8.0625 4.5C7.46576 4.5 6.89347 4.73705 6.47151 5.15901C6.04955 5.58097 5.8125 6.15326 5.8125 6.75C5.8125 7.19501 5.94446 7.63002 6.19169 8.00003C6.43893 8.37004 6.79033 8.65843 7.20146 8.82873C7.6126 8.99903 8.065 9.04358 8.50145 8.95677C8.93791 8.86995 9.33882 8.65566 9.65349 8.34099C9.96816 8.02632 10.1825 7.62541 10.2693 7.18895C10.3561 6.7525 10.3115 6.3001 10.1412 5.88896C9.97093 5.47783 9.68254 5.12643 9.31253 4.87919Z" fill="white" fill-opacity="0.5"/>
<circle cx="3.25" cy="11.25" r="2.25" fill="white" fill-opacity="0.5"/>
</svg>
