<svg width="20" height="23" viewBox="0 0 20 23" fill="none" xmlns="http://www.w3.org/2000/svg">
<path d="M19.2857 11.4286C19.2857 12.2183 18.646 12.8576 17.8572 12.8576H11.4286V19.2862C11.4286 20.0759 10.7888 20.7143 10 20.7143C9.21117 20.7143 8.57144 20.0759 8.57144 19.2862V12.8576H2.14287C1.35403 12.8576 0.714294 12.2183 0.714294 11.4286C0.714294 10.6388 1.35403 10.0004 2.14287 10.0004H8.57144V3.57188C8.57144 2.78215 9.21117 2.14286 10 2.14286C10.7888 2.14286 11.4286 2.78215 11.4286 3.57188V10.0004H17.8572C18.6473 10 19.2857 10.6384 19.2857 11.4286Z" fill="#E4BAF7" fill-opacity="0.75"/>
</svg>
