<svg width="8" height="38" viewBox="0 0 8 38" fill="none" xmlns="http://www.w3.org/2000/svg">
<mask id="path-1-inside-1_1_437" fill="white">
<path fill-rule="evenodd" clip-rule="evenodd" d="M4.17854 0.433472C2.0378 3.19508 0.823029 6.62988 0.823029 10.2376V27.7624C0.823029 31.4482 2.09087 34.9534 4.31862 37.7447C4.58717 35.5682 5.02478 33.4133 5.62868 31.2996L5.74755 30.8836C7.87211 23.4476 7.84155 15.5612 5.6594 8.14194C4.91858 5.62313 4.42322 3.04161 4.17854 0.433472Z"/>
</mask>
<path fill-rule="evenodd" clip-rule="evenodd" d="M4.17854 0.433472C2.0378 3.19508 0.823029 6.62988 0.823029 10.2376V27.7624C0.823029 31.4482 2.09087 34.9534 4.31862 37.7447C4.58717 35.5682 5.02478 33.4133 5.62868 31.2996L5.74755 30.8836C7.87211 23.4476 7.84155 15.5612 5.6594 8.14194C4.91858 5.62313 4.42322 3.04161 4.17854 0.433472Z" fill="url(#paint0_linear_1_437)"/>
<path d="M4.17854 0.433472L5.17417 0.340067L4.9379 -2.17835L3.38819 -0.179188L4.17854 0.433472ZM4.31862 37.7447L3.53702 38.3685L5.01996 40.2266L5.31109 37.8671L4.31862 37.7447ZM5.62868 31.2996L6.59021 31.5744L6.59021 31.5744L5.62868 31.2996ZM5.74755 30.8836L4.78603 30.6089L4.78602 30.6089L5.74755 30.8836ZM5.6594 8.14194L4.70004 8.42411L5.6594 8.14194ZM1.82303 10.2376C1.82303 6.85548 2.96171 3.63544 4.96889 1.04613L3.38819 -0.179188C1.11389 2.75472 -0.176971 6.40427 -0.176971 10.2376H1.82303ZM1.82303 27.7624V10.2376H-0.176971V27.7624H1.82303ZM5.10021 37.1209C3.01146 34.5037 1.82303 31.2177 1.82303 27.7624H-0.176971C-0.176971 31.6786 1.17028 35.403 3.53702 38.3685L5.10021 37.1209ZM5.31109 37.8671C5.5733 35.7421 6.00057 33.6381 6.59021 31.5744L4.66716 31.0249C4.04899 33.1885 3.60104 35.3943 3.32614 37.6222L5.31109 37.8671ZM6.59021 31.5744L6.70907 31.1583L4.78602 30.6089L4.66716 31.0249L6.59021 31.5744ZM6.70907 31.1583C8.88566 23.5403 8.85435 15.4607 6.61877 7.85977L4.70004 8.42411C6.82874 15.6617 6.85856 23.355 4.78603 30.6089L6.70907 31.1583ZM6.61877 7.85977C5.89608 5.40264 5.41286 2.88434 5.17417 0.340067L3.18291 0.526877C3.43359 3.19889 3.94107 5.84361 4.70004 8.42411L6.61877 7.85977Z" fill="white" fill-opacity="0.4" style="mix-blend-mode:overlay" mask="url(#path-1-inside-1_1_437)"/>
<defs>
<linearGradient id="paint0_linear_1_437" x1="32" y1="18" x2="12" y2="45" gradientUnits="userSpaceOnUse">
<stop stop-color="#C441F4"/>
<stop offset="1" stop-color="#00DAEA"/>
</linearGradient>
</defs>
</svg>
