<svg width="28" height="30" viewBox="0 0 28 30" fill="none" xmlns="http://www.w3.org/2000/svg">
<path d="M14 10C13.0111 10 12.0444 10.2932 11.2221 10.8427C10.3999 11.3921 9.75904 12.173 9.3806 13.0866C9.00216 14.0002 8.90315 15.0055 9.09607 15.9755C9.289 16.9454 9.7652 17.8363 10.4645 18.5355C11.1637 19.2348 12.0546 19.711 13.0245 19.9039C13.9945 20.0969 14.9998 19.9978 15.9134 19.6194C16.827 19.241 17.6079 18.6001 18.1573 17.7779C18.7068 16.9556 19 15.9889 19 15C18.996 13.6751 18.468 12.4057 17.5312 11.4688C16.5943 10.532 15.3249 10.004 14 10ZM24.795 15C24.7924 15.4672 24.7582 15.9337 24.6925 16.3962L27.7356 18.7787C27.8682 18.8882 27.9575 19.0412 27.9876 19.2104C28.0177 19.3796 27.9867 19.5541 27.9 19.7025L25.0212 24.6725C24.9337 24.8196 24.7971 24.9312 24.6355 24.9875C24.4739 25.0439 24.2975 25.0415 24.1375 24.9806L20.5594 23.5431C19.8143 24.1169 18.9989 24.593 18.1331 24.96L17.5981 28.7588C17.5682 28.9289 17.4801 29.0834 17.3489 29.1958C17.2177 29.3082 17.0515 29.3715 16.8787 29.375H11.1213C10.9517 29.3717 10.7882 29.311 10.6575 29.2028C10.5269 29.0946 10.4368 28.9454 10.4019 28.7794L9.86687 24.9806C8.99867 24.6179 8.18272 24.141 7.44063 23.5625L3.8625 25C3.70255 25.0609 3.52626 25.0634 3.36463 25.0072C3.20299 24.9509 3.06636 24.8395 2.97875 24.6925L0.0999998 19.7231C0.0133485 19.5747 -0.0176948 19.4003 0.0124175 19.231C0.0425298 19.0618 0.131835 18.9088 0.264375 18.7994L3.3075 16.4169C3.24259 15.9473 3.20835 15.474 3.205 15C3.2076 14.5328 3.24185 14.0663 3.3075 13.6038L0.264375 11.2212C0.131835 11.1118 0.0425298 10.9588 0.0124175 10.7896C-0.0176948 10.6204 0.0133485 10.4459 0.0999998 10.2975L2.97875 5.3275C3.06626 5.18037 3.20285 5.06882 3.3645 5.01246C3.52614 4.9561 3.70248 4.95855 3.8625 5.01937L7.44063 6.45687C8.1857 5.88313 9.00106 5.40698 9.86687 5.04L10.4019 1.24125C10.4318 1.07109 10.5199 0.916616 10.6511 0.804215C10.7823 0.691815 10.9485 0.628468 11.1213 0.625H16.8787C17.0483 0.628301 17.2118 0.688995 17.3425 0.797173C17.4731 0.905351 17.5632 1.05462 17.5981 1.22062L18.1331 5.01937C19.0024 5.38186 19.8194 5.85878 20.5625 6.4375L24.1375 5C24.2974 4.93912 24.4737 4.93658 24.6354 4.99282C24.797 5.04906 24.9336 5.16048 25.0212 5.3075L27.9 10.2775C27.9867 10.4259 28.0177 10.6004 27.9876 10.7696C27.9575 10.9388 27.8682 11.0918 27.7356 11.2013L24.6925 13.5837C24.7574 14.0531 24.7916 14.5262 24.795 15Z" fill="white"/>
</svg>
